<svg xmlns="http://www.w3.org/2000/svg" xmlns:xlink="http://www.w3.org/1999/xlink" width="305.606" height="56.2" viewBox="0 0 305.606 56.2">
  <defs>
    <clipPath id="clip-path">
      <rect id="Rectangle_2179" data-name="Rectangle 2179" width="230.182" height="45.234" fill="none"/>
    </clipPath>
  </defs>
  <g id="APHW_BRICK_LOGO_2021" transform="translate(0 0.09)">
    <g id="Group_3201" data-name="Group 3201" transform="translate(0 -0.09)">
      <path id="Path_607" data-name="Path 607" d="M172.62,206.926c7.836-2.632,15.077-2.243,18.887,6.986l.535,1.191c-3.888-11.076-9.415-12.177-17.6-10.492Z" transform="translate(-124.487 -181.734)" fill="#fff"/>
      <path id="Path_608" data-name="Path 608" d="M171,211.158c8.577-3.434,14.983-4.122,20.054,6.787l.057.154c-4.5-9.067-11.448-9.071-19.308-5.75Z" transform="translate(-123.523 -184.674)" fill="#fff"/>
      <path id="Path_609" data-name="Path 609" d="M96.255,214.917c-14.08,6.633-28.882,16.134-35.2-.057l-1.332,3.981c7,16.943,23.893,4.374,39.062-2.976Z" transform="translate(-57.307 -188.209)" fill="#fff"/>
      <path id="Path_610" data-name="Path 610" d="M95.2,221.51c-14.793,7.876-32.4,21.123-40.322,4.139L53.76,229.9c8.549,17.474,25.844,2.361,41.435-6.6v-1.79" transform="translate(-53.76 -192.167)" fill="#fff"/>
      <path id="Path_611" data-name="Path 611" d="M159.452,201.855l-2.588,3.24,2.284,3.475-3.884-1.474-2.6,3.24.2-4.155L149,204.71l3.981-1.089.207-4.131,2.292,3.446Z" transform="translate(-110.432 -179.063)" fill="#fff"/>
      <path id="Path_612" data-name="Path 612" d="M147.719,170.493,140,154.922a5.491,5.491,0,0,1-.709-2.458q0-1.567,2.2-2.2V149.05H123.458v1.215q2.162.745,2.162,2.458a7.433,7.433,0,0,1-.895,2.98L112.39,181.475c.7.073,11.833-5.244,13.307-5.775l.259-.555-1.551-.6,2.1-.563,5.592-12.088,4.284,9.411h0a34.346,34.346,0,0,1,6.981-1.166A16.809,16.809,0,0,1,147.719,170.493Z" transform="translate(-88.647 -149.05)" fill="#fff"/>
      <path id="Path_613" data-name="Path 613" d="M190.343,216.979l8.168,16.526a12.875,12.875,0,0,0,2.158,3.406,4.7,4.7,0,0,0,2.5,1.215v1.195H184.451v-1.195q2.458-.4,2.462-2.308a5.925,5.925,0,0,0-.745-2.308l-6.686-14.121-1.312-2.871a15.554,15.554,0,0,1,6.208-1.284C188.63,215.136,189.93,216.635,190.343,216.979Z" transform="translate(-127.789 -188.429)" fill="#fff"/>
      <path id="Path_614" data-name="Path 614" d="M104.3,246.78l-2.612,5.5a5.928,5.928,0,0,0-.709,2.345q0,1.64,2.491,2.272v1.195H86.65V256.9a4.532,4.532,0,0,0,2.272-1.041,9.338,9.338,0,0,0,1.62-2.551C93.96,252.624,98.414,250.425,104.3,246.78Z" transform="translate(-73.331 -207.203)" fill="#fff"/>
      <path id="Path_615" data-name="Path 615" d="M138.235,259.275v1.834a.467.467,0,0,1-.51.4l-1.83.154c-.344.028-.644-.166-.644-.4v-1.62c0-.186.174-.352.425-.4l1.83-.36c.369-.073.729.126.729.4Z" transform="translate(-102.25 -214.393)" fill="#fff"/>
      <path id="Path_616" data-name="Path 616" d="M141.543,267.671v2.276c0,.231-.259.4-.575.4h-5.139c-.32,0-.579-.186-.579-.4V268.1a.47.47,0,0,1,.51-.4l5.139-.433C141.243,267.238,141.543,267.432,141.543,267.671Z" transform="translate(-102.25 -219.392)" fill="#fff"/>
      <path id="Path_617" data-name="Path 617" d="M141.573,247.858v2.077a.47.47,0,0,1-.4.4l-5.139,1.012c-.369.073-.729-.126-.729-.4v-1.535a.445.445,0,0,1,.356-.385l5.139-1.555c.381-.113.81.089.81.385Z" transform="translate(-102.28 -207.596)" fill="#fff"/>
      <path id="Path_618" data-name="Path 618" d="M152.291,232.48l-5.981,2.353a.4.4,0,0,0-.3.369v2.025c0,.3.4.5.81.4l5.483-1.62v-3.519Z" transform="translate(-108.653 -198.694)" fill="#fff"/>
      <path id="Path_619" data-name="Path 619" d="M157.152,243.69l-2.62.79a.437.437,0,0,0-.352.4v2.341c0,.275.36.474.729.4l2.243-.4v-3.507Z" transform="translate(-113.514 -205.364)" fill="#fff"/>
      <path id="Path_620" data-name="Path 620" d="M152.255,254.818l-5.88,1.138a.465.465,0,0,0-.425.4v2.118c0,.251.3.445.644.4l5.669-.458V254.81Z" transform="translate(-108.617 -211.981)" fill="#fff"/>
      <path id="Path_621" data-name="Path 621" d="M157.152,266.19l-2.462.2c-.292.024-.51.2-.51.4v2.491c0,.231.259.4.575.4h2.4V266.17Z" transform="translate(-113.514 -218.742)" fill="#fff"/>
      <path id="Path_622" data-name="Path 622" d="M180.42,259.275v1.834a.467.467,0,0,0,.51.4l1.83.154c.34.028.644-.166.644-.4v-1.62a.47.47,0,0,0-.4-.4l-1.83-.36c-.369-.073-.729.126-.729.4Z" transform="translate(-129.128 -214.393)" fill="#fff"/>
      <path id="Path_623" data-name="Path 623" d="M172.25,267.671v2.276c0,.231.259.4.575.4h5.139c.32,0,.579-.186.579-.4V268.1a.47.47,0,0,0-.51-.4l-5.139-.433C172.55,267.238,172.25,267.432,172.25,267.671Z" transform="translate(-124.267 -219.392)" fill="#fff"/>
      <path id="Path_624" data-name="Path 624" d="M172.232,247.858v2.077c0,.186.174.352.425.4l5.139,1.012c.364.073.729-.126.729-.4v-1.535a.445.445,0,0,0-.356-.385l-5.139-1.555c-.381-.113-.81.089-.81.385Z" transform="translate(-124.249 -207.596)" fill="#fff"/>
      <path id="Path_625" data-name="Path 625" d="M161.5,232.48l5.981,2.353a.4.4,0,0,1,.3.369v2.025c0,.3-.4.5-.81.4l-5.483-1.62v-3.519Z" transform="translate(-117.864 -198.694)" fill="#fff"/>
      <path id="Path_626" data-name="Path 626" d="M161.52,243.69l2.616.79a.441.441,0,0,1,.356.4v2.341c0,.275-.36.474-.729.4l-2.243-.4v-3.507Z" transform="translate(-117.882 -205.364)" fill="#fff"/>
      <path id="Path_627" data-name="Path 627" d="M161.514,254.818l5.864,1.138a.465.465,0,0,1,.425.4v2.118c0,.251-.3.445-.644.4l-5.649-.458V254.81Z" transform="translate(-117.876 -211.981)" fill="#fff"/>
      <path id="Path_628" data-name="Path 628" d="M161.52,266.19l2.462.2c.292.024.51.2.51.4v2.491c0,.231-.259.4-.575.4h-2.4V266.17Z" transform="translate(-117.882 -218.742)" fill="#fff"/>
      <path id="Path_629" data-name="Path 629" d="M247.665,184.722l.36-1.62.4,1.62,2.215,7.245h-5.07Zm-.745-3.592-5.41,15.307-1.45.316v1.539h6.074v-1.539l-1.851-.3.81-2.754h6.078l.842,2.742-1.83.316v1.539h7.289v-1.539l-1.563-.316-5.4-15.307Z" transform="translate(-164.616 -168.139)" fill="#fff"/>
      <g id="Group_3145" data-name="Group 3145" transform="translate(75.423 10.966)" clip-path="url(#clip-path)">
        <path id="Path_630" data-name="Path 630" d="M285.109,204.284v-1.462l1.405-.255v-8.65L285,193.443v-1.7l3.977-.547h.057l.6.482v1.336a5.2,5.2,0,0,1,.915-.672,8.22,8.22,0,0,1,1.166-.575,8.427,8.427,0,0,1,1.276-.4,5.669,5.669,0,0,1,1.235-.146,4.293,4.293,0,0,1,2.057.4,2.6,2.6,0,0,1,1.154,1.324,5.806,5.806,0,0,1,.81-.591,7.935,7.935,0,0,1,1.13-.559,9.516,9.516,0,0,1,1.3-.425,5.639,5.639,0,0,1,1.32-.166,5.05,5.05,0,0,1,1.766.267,2.43,2.43,0,0,1,1.134.879,4,4,0,0,1,.607,1.575,13.5,13.5,0,0,1,.178,2.365v6.249l1.583.255v1.462H301.04v-1.438l1.178-.255V196.42a9.387,9.387,0,0,0-.1-1.466,2.636,2.636,0,0,0-.32-.972,1.324,1.324,0,0,0-.607-.539,2.4,2.4,0,0,0-.952-.166,2.721,2.721,0,0,0-.62.077,6.03,6.03,0,0,0-.672.2,6.641,6.641,0,0,0-.652.263,5.269,5.269,0,0,0-.551.292,7.634,7.634,0,0,1,.121,1.029q.036.553.036,1.215v6.232l1.494.247v1.462h-6.3v-1.47l1.349-.247V196.3a8.646,8.646,0,0,0-.089-1.344,2.547,2.547,0,0,0-.308-.923,1.332,1.332,0,0,0-.6-.535,2.248,2.248,0,0,0-.952-.174,3.314,3.314,0,0,0-.7.077,5.976,5.976,0,0,0-.713.2,4.4,4.4,0,0,0-.64.267,3.171,3.171,0,0,0-.494.312v8.391l1.515.255v1.462Z" transform="translate(-266.781 -185.097)" fill="#fff"/>
        <path id="Path_631" data-name="Path 631" d="M346.339,192.652a2.142,2.142,0,0,0-.81.154,1.507,1.507,0,0,0-.664.6,4.009,4.009,0,0,0-.474,1.215,10.707,10.707,0,0,0-.227,2.025h4.029v-.729a9.481,9.481,0,0,0-.077-1.162,3.745,3.745,0,0,0-.287-1.049,2.025,2.025,0,0,0-.575-.753,1.45,1.45,0,0,0-.935-.292m.3,11.861a6.856,6.856,0,0,1-2.725-.494,4.993,4.993,0,0,1-1.875-1.377,5.625,5.625,0,0,1-1.085-2.106,9.813,9.813,0,0,1-.348-2.673,8.327,8.327,0,0,1,.445-2.814,6.1,6.1,0,0,1,1.251-2.114,5.383,5.383,0,0,1,1.944-1.328,6.621,6.621,0,0,1,2.515-.462q4.665,0,4.859,4.548v1.4a7.28,7.28,0,0,1-.117,1.049h-7.318a7.023,7.023,0,0,0,.328,1.9,3.644,3.644,0,0,0,.709,1.28,2.584,2.584,0,0,0,1.037.721,3.75,3.75,0,0,0,1.32.223,5.95,5.95,0,0,0,1.069-.089,7.032,7.032,0,0,0,.915-.227,5.851,5.851,0,0,0,.761-.3,6.233,6.233,0,0,0,.591-.328l.583,1.361a4.272,4.272,0,0,1-.782.611,7.032,7.032,0,0,1-1.146.587,8.636,8.636,0,0,1-1.393.45,6.361,6.361,0,0,1-1.519.182" transform="translate(-299.858 -185.067)" fill="#fff"/>
        <path id="Path_632" data-name="Path 632" d="M371.24,204.23v-1.506l1.62-.211v-8.65l-1.527-.474v-1.7l3.859-.547h.065l.6.482v2.685h.045a5.207,5.207,0,0,1,.49-.9,6.306,6.306,0,0,1,.875-1.057,5.379,5.379,0,0,1,1.215-.879,3.086,3.086,0,0,1,1.478-.364,4.3,4.3,0,0,1,.535.028,1.923,1.923,0,0,1,.308.073v3.9a2.081,2.081,0,0,0-.644-.2,6.5,6.5,0,0,0-1.243-.105,7.289,7.289,0,0,0-.786.045c-.263.032-.506.069-.737.117a4.655,4.655,0,0,0-.611.174,2.024,2.024,0,0,0-.4.2v7.168l2.8.267v1.462Z" transform="translate(-318.097 -185.043)" fill="#fff"/>
        <path id="Path_633" data-name="Path 633" d="M401.215,180.713a1.62,1.62,0,0,1-.7-.146,1.5,1.5,0,0,1-.514-.4,1.572,1.572,0,0,1-.316-.571,2.252,2.252,0,0,1-.109-.7,2.752,2.752,0,0,1,.121-.81,1.853,1.853,0,0,1,.364-.676,1.7,1.7,0,0,1,.611-.462,1.984,1.984,0,0,1,.846-.17h0a1.9,1.9,0,0,1,.81.154,1.652,1.652,0,0,1,.555.4,1.62,1.62,0,0,1,.332.575,2.259,2.259,0,0,1,.105.684,2.8,2.8,0,0,1-.121.838,1.971,1.971,0,0,1-.377.676,1.769,1.769,0,0,1-.652.45,2.547,2.547,0,0,1-.939.162ZM398.23,195.7V194.19l1.62-.211v-8.65l-1.519-.486v-1.685l4.122-.547h.057l.81.482v10.873l1.62.223V195.7Z" transform="translate(-334.157 -176.509)" fill="#fff"/>
        <path id="Path_634" data-name="Path 634" d="M417.182,197.949a8.1,8.1,0,0,1,.454-2.774,6.244,6.244,0,0,1,1.3-2.162,5.8,5.8,0,0,1,2.025-1.4,6.848,6.848,0,0,1,2.681-.5,10.358,10.358,0,0,1,1.381.085c.4.057.81.122,1.122.2s.616.15.854.227.433.142.583.186l-.113,3.831h-1.976l-.652-1.976a2.1,2.1,0,0,0-.6-.741,1.417,1.417,0,0,0-.879-.271,1.936,1.936,0,0,0-.96.255,2.333,2.333,0,0,0-.81.81,4.68,4.68,0,0,0-.567,1.409,8.861,8.861,0,0,0-.211,2.09,10.857,10.857,0,0,0,.219,2.357,4.389,4.389,0,0,0,.64,1.563,2.454,2.454,0,0,0,1.029.859,3.378,3.378,0,0,0,1.357.263,5.2,5.2,0,0,0,1.8-.279,6.717,6.717,0,0,0,1.276-.607l.6,1.361a4.047,4.047,0,0,1-.676.563,6.375,6.375,0,0,1-1.037.579,7.527,7.527,0,0,1-1.3.454,6.231,6.231,0,0,1-1.49.178,6.885,6.885,0,0,1-2.729-.494,4.981,4.981,0,0,1-1.883-1.373,5.7,5.7,0,0,1-1.089-2.073,9.132,9.132,0,0,1-.352-2.6" transform="translate(-345.427 -185.042)" fill="#fff"/>
        <path id="Path_635" data-name="Path 635" d="M451.852,202.37a2.212,2.212,0,0,0,.462-.053,5.264,5.264,0,0,0,.539-.158,4.456,4.456,0,0,0,.551-.243,2.255,2.255,0,0,0,.474-.32v-3.718a6.884,6.884,0,0,0-1.826.2,3.406,3.406,0,0,0-1.174.539,1.965,1.965,0,0,0-.624.773,2.429,2.429,0,0,0-.186.935,2.239,2.239,0,0,0,.458,1.519,1.664,1.664,0,0,0,1.328.522m-5.333-1.5a3.471,3.471,0,0,1,.3-1.474,3.6,3.6,0,0,1,.81-1.122,4.859,4.859,0,0,1,1.215-.81,8.613,8.613,0,0,1,1.527-.559,11.98,11.98,0,0,1,1.7-.32c.591-.065,1.187-.109,1.778-.121v-.539a2.59,2.59,0,0,0-.522-1.826,2.288,2.288,0,0,0-1.713-.547,7.768,7.768,0,0,0-1.215.1c-.4.065-.81.142-1.174.235a10.226,10.226,0,0,0-1.041.316c-.316.117-.587.227-.81.332h0l-.66-1.515a5.671,5.671,0,0,1,.81-.5,9.808,9.808,0,0,1,1.349-.6,13.261,13.261,0,0,1,1.737-.506,9.048,9.048,0,0,1,1.968-.211,7.289,7.289,0,0,1,2.118.267,3.264,3.264,0,0,1,1.413.81,3.348,3.348,0,0,1,.81,1.421,7.187,7.187,0,0,1,.255,2.025v7.01h1.393v1.381l-.53.117c-.211.049-.441.093-.7.134s-.526.077-.81.109a8.052,8.052,0,0,1-.9.045,6.634,6.634,0,0,1-.693-.032,1.037,1.037,0,0,1-.462-.158.725.725,0,0,1-.251-.356,1.99,1.99,0,0,1-.077-.624v-.652a4.338,4.338,0,0,1-.53.575,4.407,4.407,0,0,1-.81.6,4.971,4.971,0,0,1-1.081.466,4.507,4.507,0,0,1-1.34.186,5.057,5.057,0,0,1-1.49-.215,3.385,3.385,0,0,1-1.215-.66,3.2,3.2,0,0,1-.81-1.146,4.122,4.122,0,0,1-.3-1.652" transform="translate(-362.891 -185.095)" fill="#fff"/>
        <path id="Path_636" data-name="Path 636" d="M481.067,176.9a1.867,1.867,0,0,1,1,.288,2.608,2.608,0,0,1,.81.81,4.049,4.049,0,0,1,.535,1.215,5.874,5.874,0,0,1,.19,1.551,7.692,7.692,0,0,1-.336,2.333,9.446,9.446,0,0,1-.81,1.9,7.387,7.387,0,0,1-1.012,1.385,4.292,4.292,0,0,1-.9.769H480.5l-.9-.875v-.4a3.122,3.122,0,0,0,.441-.466,3.454,3.454,0,0,0,.458-.773,5.625,5.625,0,0,0,.5-2.43,2.8,2.8,0,0,0-.1-.81,2.43,2.43,0,0,0-.288-.6,3.334,3.334,0,0,0-.368-.466,4.924,4.924,0,0,1-.373-.445,2.246,2.246,0,0,1-.288-.535,2.1,2.1,0,0,1-.109-.725,1.713,1.713,0,0,1,.45-1.268,1.551,1.551,0,0,1,1.146-.45Z" transform="translate(-382.5 -176.588)" fill="#fff"/>
        <path id="Path_637" data-name="Path 637" d="M491.521,203.562v-3.155h2.069l.583,1.753a1.264,1.264,0,0,0,.308.292,2.43,2.43,0,0,0,.494.259,4.769,4.769,0,0,0,.648.186,4.1,4.1,0,0,0,.753.069,2.633,2.633,0,0,0,.915-.134,1.62,1.62,0,0,0,.567-.34,1.105,1.105,0,0,0,.292-.474,1.75,1.75,0,0,0,.077-.51,1.36,1.36,0,0,0-.239-.81,2.475,2.475,0,0,0-.684-.632,7.7,7.7,0,0,0-1.073-.555l-1.393-.583a8.769,8.769,0,0,1-1.393-.7,4.892,4.892,0,0,1-1.053-.867,3.483,3.483,0,0,1-.9-2.43,3.365,3.365,0,0,1,.332-1.478,3.276,3.276,0,0,1,.984-1.178,4.928,4.928,0,0,1,1.62-.786,7.9,7.9,0,0,1,2.235-.288,8.535,8.535,0,0,1,1.32.093,10.033,10.033,0,0,1,1.049.207c.316.077.6.162.867.247a6.01,6.01,0,0,0,.761.194v3.1l-1.952-.032-.531-1.486a1.5,1.5,0,0,0-.6-.5,2.353,2.353,0,0,0-1.11-.251,2.677,2.677,0,0,0-.846.113,1.405,1.405,0,0,0-.551.3,1.114,1.114,0,0,0-.3.4,1.289,1.289,0,0,0-.089.47,1.482,1.482,0,0,0,.3.96,2.633,2.633,0,0,0,.765.636,6.819,6.819,0,0,0,1.008.454c.369.13.717.271,1.045.4.494.215.964.445,1.413.692a5.78,5.78,0,0,1,1.215.846,3.693,3.693,0,0,1,.83,1.118,3.41,3.41,0,0,1,.308,1.51,3.553,3.553,0,0,1-.32,1.515,3.292,3.292,0,0,1-.964,1.215,4.782,4.782,0,0,1-1.62.81,7.937,7.937,0,0,1-2.272.292,9.551,9.551,0,0,1-1.62-.126c-.49-.081-.935-.178-1.336-.283s-.757-.219-1.073-.328a7.756,7.756,0,0,0-.81-.243" transform="translate(-389.649 -185.096)" fill="#fff"/>
        <path id="Path_638" data-name="Path 638" d="M538.27,190.379a3.239,3.239,0,0,0,.64.085h.968a3.39,3.39,0,0,0,1.215-.219,2.535,2.535,0,0,0,1.021-.729,3.778,3.778,0,0,0,.713-1.361,6.948,6.948,0,0,0,.271-2.106q0-3.584-3.179-3.584a6.638,6.638,0,0,0-.972.057c-.235.036-.458.065-.668.081Zm-5.37,7.864V196.7l1.843-.292V183l-1.766-.348v-1.506H537.5l.887-.053.98-.045h1.215a12.055,12.055,0,0,1,2.924.324,4.766,4.766,0,0,1,1.915.939,3.487,3.487,0,0,1,1.053,1.563,6.885,6.885,0,0,1,.32,2.195,6.481,6.481,0,0,1-.486,2.6,5.012,5.012,0,0,1-1.381,1.879,6.041,6.041,0,0,1-2.179,1.146,9.876,9.876,0,0,1-2.875.4h-.535l-.482-.028-.377-.032-.223-.028v4.455l3.147.3V198.3Z" transform="translate(-414.292 -179.056)" fill="#fff"/>
        <path id="Path_639" data-name="Path 639" d="M570.87,204.23v-1.506l1.62-.211v-8.65l-1.527-.474v-1.7l3.839-.547h.069l.6.482v2.685h.045a4.947,4.947,0,0,1,.49-.9,6.116,6.116,0,0,1,.875-1.057,5.287,5.287,0,0,1,1.215-.879,3.086,3.086,0,0,1,1.478-.364,4.3,4.3,0,0,1,.535.028,1.922,1.922,0,0,1,.308.073v3.9a2.122,2.122,0,0,0-.648-.2,6.48,6.48,0,0,0-1.239-.105,7.243,7.243,0,0,0-.786.045c-.263.032-.51.069-.737.117a4.479,4.479,0,0,0-.612.174,1.906,1.906,0,0,0-.4.2v7.168l2.8.267v1.462Z" transform="translate(-436.885 -185.043)" fill="#fff"/>
        <path id="Path_640" data-name="Path 640" d="M602.131,192.628a2.158,2.158,0,0,0-.81.154,1.506,1.506,0,0,0-.664.6,3.908,3.908,0,0,0-.47,1.215,10.334,10.334,0,0,0-.231,2.025h4.05v-.729a8.762,8.762,0,0,0-.069-1.178,3.745,3.745,0,0,0-.287-1.049,1.981,1.981,0,0,0-.571-.753,1.47,1.47,0,0,0-.939-.292m.3,11.861a6.857,6.857,0,0,1-2.725-.494,5.026,5.026,0,0,1-1.875-1.377,5.668,5.668,0,0,1-1.085-2.106,9.814,9.814,0,0,1-.348-2.673,8.327,8.327,0,0,1,.446-2.814,6.1,6.1,0,0,1,1.251-2.114,5.381,5.381,0,0,1,1.944-1.328,6.621,6.621,0,0,1,2.515-.462q4.665,0,4.859,4.548v1.4a6.75,6.75,0,0,1-.117,1.049h-7.342a7.03,7.03,0,0,0,.324,1.9,3.779,3.779,0,0,0,.709,1.28,2.584,2.584,0,0,0,1.037.721,3.751,3.751,0,0,0,1.32.223,5.915,5.915,0,0,0,1.069-.089,6.881,6.881,0,0,0,.915-.227,6.156,6.156,0,0,0,.765-.3,6.671,6.671,0,0,0,.587-.328l.583,1.361a4.371,4.371,0,0,1-.778.611,7.38,7.38,0,0,1-1.146.587,8.766,8.766,0,0,1-1.393.449,6.4,6.4,0,0,1-1.523.182" transform="translate(-452.081 -185.043)" fill="#fff"/>
        <path id="Path_641" data-name="Path 641" d="M627.418,195.321v-1.482l1.8-.3V184.48H627.24v-1.344l1.976-.563v-.652a5.147,5.147,0,0,1,.551-2.4,5.973,5.973,0,0,1,1.426-1.822,6.37,6.37,0,0,1,1.928-1.158,5.966,5.966,0,0,1,2.1-.4,4.14,4.14,0,0,1,.867.069,4.6,4.6,0,0,1,.45.121v3.361a1.762,1.762,0,0,0-.405-.308,3.666,3.666,0,0,0-.6-.271,5.135,5.135,0,0,0-.717-.194,3.8,3.8,0,0,0-.773-.081,2.113,2.113,0,0,0-.551.069.947.947,0,0,0-.4.239,1.171,1.171,0,0,0-.271.474,2.624,2.624,0,0,0-.093.757v2.2h2.887v1.907h-2.887v9.124l2.495.235v1.482Z" transform="translate(-470.428 -176.134)" fill="#fff"/>
        <path id="Path_642" data-name="Path 642" d="M654.519,192.652a2.158,2.158,0,0,0-.81.154,1.506,1.506,0,0,0-.664.6,3.913,3.913,0,0,0-.47,1.215,10.329,10.329,0,0,0-.231,2.025h4.049v-.729a9.487,9.487,0,0,0-.077-1.162,3.746,3.746,0,0,0-.288-1.049,1.98,1.98,0,0,0-.571-.753,1.47,1.47,0,0,0-.94-.292m.3,11.861a6.856,6.856,0,0,1-2.725-.494,4.993,4.993,0,0,1-1.875-1.377,5.669,5.669,0,0,1-1.085-2.106,9.811,9.811,0,0,1-.348-2.673,8.327,8.327,0,0,1,.445-2.814,6.1,6.1,0,0,1,1.251-2.114,5.382,5.382,0,0,1,1.944-1.328,6.622,6.622,0,0,1,2.515-.462q4.665,0,4.859,4.548v1.4a6.742,6.742,0,0,1-.117,1.049h-7.338a7.187,7.187,0,0,0,.328,1.9,3.714,3.714,0,0,0,.709,1.28,2.584,2.584,0,0,0,1.037.721,3.749,3.749,0,0,0,1.32.223,5.95,5.95,0,0,0,1.069-.089,7.028,7.028,0,0,0,.915-.227,5.85,5.85,0,0,0,.761-.3,6.213,6.213,0,0,0,.591-.328l.583,1.361a4.373,4.373,0,0,1-.777.611,7.383,7.383,0,0,1-1.146.587,8.767,8.767,0,0,1-1.393.45,6.418,6.418,0,0,1-1.523.182" transform="translate(-483.25 -185.067)" fill="#fff"/>
        <path id="Path_643" data-name="Path 643" d="M680.52,204.23v-1.506l1.62-.211v-8.65l-1.527-.474v-1.7l3.839-.547h.069l.6.482v2.685h.053a5.213,5.213,0,0,1,.49-.9,6.119,6.119,0,0,1,.875-1.057,5.287,5.287,0,0,1,1.215-.879,3.086,3.086,0,0,1,1.478-.364,4.3,4.3,0,0,1,.535.028,1.926,1.926,0,0,1,.308.073v3.9a2.122,2.122,0,0,0-.648-.2,6.478,6.478,0,0,0-1.239-.105,7.241,7.241,0,0,0-.786.045c-.263.032-.51.069-.737.117a4.661,4.661,0,0,0-.611.174,2.027,2.027,0,0,0-.4.2v7.168l2.8.267v1.462Z" transform="translate(-502.132 -185.043)" fill="#fff"/>
        <path id="Path_644" data-name="Path 644" d="M707.68,204.23v-1.506l1.62-.211v-8.65l-1.531-.474v-1.7l3.843-.547h.065l.6.482v2.685h.045a4.879,4.879,0,0,1,.486-.9,6.335,6.335,0,0,1,.879-1.057,5.284,5.284,0,0,1,1.215-.879,3.058,3.058,0,0,1,1.474-.364,4.2,4.2,0,0,1,.535.028,1.822,1.822,0,0,1,.308.073v3.9a2.081,2.081,0,0,0-.644-.2,6.481,6.481,0,0,0-1.243-.105,7.355,7.355,0,0,0-.786.045c-.263.032-.506.069-.733.117a4.723,4.723,0,0,0-.616.174,1.956,1.956,0,0,0-.4.2v7.168l2.794.267v1.462Z" transform="translate(-518.293 -185.043)" fill="#fff"/>
        <path id="Path_645" data-name="Path 645" d="M738.922,192.652a2.143,2.143,0,0,0-.81.154,1.506,1.506,0,0,0-.664.6,4.011,4.011,0,0,0-.474,1.215,11.011,11.011,0,0,0-.231,2.025h4.05v-.729a8.761,8.761,0,0,0-.081-1.162,3.619,3.619,0,0,0-.283-1.049,2.025,2.025,0,0,0-.575-.753,1.45,1.45,0,0,0-.935-.292m.3,11.861a6.848,6.848,0,0,1-2.721-.494,4.993,4.993,0,0,1-1.875-1.377,5.625,5.625,0,0,1-1.085-2.106,9.812,9.812,0,0,1-.348-2.673,8.226,8.226,0,0,1,.445-2.814,6.1,6.1,0,0,1,1.251-2.114,5.381,5.381,0,0,1,1.944-1.328,6.62,6.62,0,0,1,2.515-.462q4.661,0,4.859,4.548v1.4a7.292,7.292,0,0,1-.117,1.049h-7.33a6.887,6.887,0,0,0,.328,1.9,3.71,3.71,0,0,0,.7,1.28,2.629,2.629,0,0,0,1.041.721,3.75,3.75,0,0,0,1.32.223,5.95,5.95,0,0,0,1.069-.089,7.04,7.04,0,0,0,.915-.227,5.853,5.853,0,0,0,.761-.3,6.23,6.23,0,0,0,.591-.328l.583,1.361a4.273,4.273,0,0,1-.782.611,7.038,7.038,0,0,1-1.146.587,8.64,8.64,0,0,1-1.393.449,6.393,6.393,0,0,1-1.523.182" transform="translate(-533.471 -185.067)" fill="#fff"/>
        <path id="Path_646" data-name="Path 646" d="M769.7,194a2.749,2.749,0,0,0,1.215-.259,2.463,2.463,0,0,0,.81-.583v-8.468a1.62,1.62,0,0,0-.628-.36,3.121,3.121,0,0,0-1.049-.158,2.58,2.58,0,0,0-1.142.259,2.381,2.381,0,0,0-.944.854,4.86,4.86,0,0,0-.648,1.575,11.072,11.072,0,0,0-.263,2.43,9.955,9.955,0,0,0,.158,2.15,4.519,4.519,0,0,0,.522,1.466,2.171,2.171,0,0,0,.842.838,2.369,2.369,0,0,0,1.118.263m-1.43,2.025a5.013,5.013,0,0,1-1.948-.377,4.151,4.151,0,0,1-1.575-1.162,5.576,5.576,0,0,1-1.057-1.984,9.288,9.288,0,0,1-.385-2.835,8.425,8.425,0,0,1,.458-2.835,6.4,6.4,0,0,1,1.312-2.219,6,6,0,0,1,2.1-1.454,7.1,7.1,0,0,1,2.794-.522,6.159,6.159,0,0,1,.915.045,7.762,7.762,0,0,1,.85.138V179l-2.057-.352v-1.259l4.754-.482h.053l.7.526v16.781h1.247v1.417c-.373.081-.81.17-1.28.263a8.241,8.241,0,0,1-1.571.142,1.681,1.681,0,0,1-1.069-.3,1.34,1.34,0,0,1-.381-1.1V194.2a4.626,4.626,0,0,1-.668.688,4.549,4.549,0,0,1-.879.587,5.263,5.263,0,0,1-1.065.4,4.859,4.859,0,0,1-1.243.15" transform="translate(-551.387 -176.594)" fill="#fff"/>
        <path id="Path_647" data-name="Path 647" d="M800.568,178.721a.17.17,0,0,0-.105-.166.482.482,0,0,0-.215-.053H799.9v.474h.352a.356.356,0,0,0,.227-.069A.223.223,0,0,0,800.568,178.721Zm.057,1.555-.462-.842H799.9v.842h-.652v-2.284h1.033a1.668,1.668,0,0,1,.348.036.959.959,0,0,1,.316.117.712.712,0,0,1,.231.223.644.644,0,0,1,.089.344.591.591,0,0,1-.134.4.749.749,0,0,1-.344.235l.607.939Zm1.316-1.1a1.621,1.621,0,0,0-.138-.66,1.746,1.746,0,0,0-.935-.9,1.835,1.835,0,0,0-1.944.364,1.672,1.672,0,0,0-.381.539,1.547,1.547,0,0,0-.138.66,1.567,1.567,0,0,0,.138.648,1.621,1.621,0,0,0,.381.535,1.85,1.85,0,0,0,.567.36,1.753,1.753,0,0,0,.693.13,1.729,1.729,0,0,0,.684-.13,1.794,1.794,0,0,0,.555-.36,1.7,1.7,0,0,0,.381-.535,1.619,1.619,0,0,0,.142-.648Zm.332,0a1.818,1.818,0,0,1-.17.757,1.95,1.95,0,0,1-.45.624,2.123,2.123,0,0,1-.66.4,2.154,2.154,0,0,1-.81.154,2.276,2.276,0,0,1-.81-.154,2.227,2.227,0,0,1-.672-.4,1.95,1.95,0,0,1-.45-.624,1.818,1.818,0,0,1-.162-.773,1.9,1.9,0,0,1,.162-.778,2,2,0,0,1,.45-.632,2.179,2.179,0,0,1,1.494-.583,2.134,2.134,0,0,1,1.478.583,1.923,1.923,0,0,1,.445.632,1.833,1.833,0,0,1,.162.778" transform="translate(-572.091 -176.749)" fill="#fff"/>
        <path id="Path_648" data-name="Path 648" d="M289.771,247.3a3.851,3.851,0,0,1-1.5,3.24,6.473,6.473,0,0,1-4.05,1.154,10.212,10.212,0,0,1-4.288-.717v-1.758a11.392,11.392,0,0,0,2.1.644,10.985,10.985,0,0,0,2.247.235,4.543,4.543,0,0,0,2.746-.692,2.268,2.268,0,0,0,.923-1.924,2.45,2.45,0,0,0-.328-1.332,3.021,3.021,0,0,0-1.093-.96,14.682,14.682,0,0,0-2.333-1,7.461,7.461,0,0,1-3.122-1.855,4.09,4.09,0,0,1-.939-2.8,3.478,3.478,0,0,1,1.361-2.883,5.67,5.67,0,0,1,3.6-1.073,10.63,10.63,0,0,1,4.3.859l-.567,1.587a9.719,9.719,0,0,0-3.774-.81,3.677,3.677,0,0,0-2.264.62,2.049,2.049,0,0,0-.81,1.725,2.633,2.633,0,0,0,.3,1.336,2.787,2.787,0,0,0,1.012.952,12.152,12.152,0,0,0,2.179.96,8.629,8.629,0,0,1,3.394,1.887,3.721,3.721,0,0,1,.927,2.616" transform="translate(-263.764 -211.501)" fill="#fff"/>
        <path id="Path_649" data-name="Path 649" d="M310.979,252.3a6.025,6.025,0,0,0,.911-.069,6.69,6.69,0,0,0,.7-.146v1.361a3.272,3.272,0,0,1-.85.231,6.392,6.392,0,0,1-1.016.089q-3.41,0-3.406-3.588v-6.99H305.63v-.859l1.685-.737.749-2.511h1.029v2.725h3.41v1.381h-3.41V250.1a2.369,2.369,0,0,0,.506,1.62,1.745,1.745,0,0,0,1.381.571" transform="translate(-279.057 -213.588)" fill="#fff"/>
        <path id="Path_650" data-name="Path 650" d="M333.979,245.279a7.05,7.05,0,0,1,1.405.126l-.247,1.652a6.2,6.2,0,0,0-1.288-.162,3.13,3.13,0,0,0-2.43,1.158,4.22,4.22,0,0,0-1.012,2.883v6.3H328.63V245.494H330.1l.207,2.175h.1a5.147,5.147,0,0,1,1.575-1.77,3.544,3.544,0,0,1,2.025-.62" transform="translate(-292.743 -217.276)" fill="#fff"/>
        <path id="Path_651" data-name="Path 651" d="M351.212,245.792v7.617a3.066,3.066,0,0,0,.652,2.146,2.658,2.658,0,0,0,2.049.7,3.339,3.339,0,0,0,2.693-1,5.1,5.1,0,0,0,.854-3.292v-6.172h1.778v11.744h-1.466l-.259-1.575h-.1a3.531,3.531,0,0,1-1.515,1.328,5.1,5.1,0,0,1-2.215.462,4.494,4.494,0,0,1-3.211-1.016,4.337,4.337,0,0,1-1.065-3.26V245.78Z" transform="translate(-305.108 -217.575)" fill="#fff"/>
        <path id="Path_652" data-name="Path 652" d="M385.729,257.417a5.02,5.02,0,0,1-3.952-1.571,6.457,6.457,0,0,1-1.4-4.455,6.652,6.652,0,0,1,1.417-4.552,5.164,5.164,0,0,1,4.05-1.62,8.051,8.051,0,0,1,1.693.182,5.761,5.761,0,0,1,1.328.425l-.543,1.539a8.444,8.444,0,0,0-1.288-.4,5.856,5.856,0,0,0-1.215-.154q-3.576,0-3.58,4.564a5.437,5.437,0,0,0,.875,3.325,3.045,3.045,0,0,0,2.588,1.154,7.937,7.937,0,0,0,3.013-.632v1.575a6.414,6.414,0,0,1-2.968.611" transform="translate(-323.536 -217.241)" fill="#fff"/>
        <path id="Path_653" data-name="Path 653" d="M410.333,252.3a6.025,6.025,0,0,0,.911-.069,6.689,6.689,0,0,0,.7-.146v1.361a3.272,3.272,0,0,1-.85.231,6.392,6.392,0,0,1-1.012.089q-3.414,0-3.41-3.588v-6.99H405v-.859l1.685-.737.749-2.511h1.029v2.725h3.41v1.381h-3.41V250.1a2.369,2.369,0,0,0,.506,1.62,1.745,1.745,0,0,0,1.381.571" transform="translate(-338.186 -213.588)" fill="#fff"/>
        <path id="Path_654" data-name="Path 654" d="M428.418,245.792v7.617a3.066,3.066,0,0,0,.656,2.146,2.663,2.663,0,0,0,2.045.7,3.345,3.345,0,0,0,2.7-1,5.086,5.086,0,0,0,.85-3.292v-6.172h1.782v11.744h-1.47l-.259-1.575h-.093a3.519,3.519,0,0,1-1.519,1.328,5.1,5.1,0,0,1-2.211.462,4.494,4.494,0,0,1-3.211-1.016,4.332,4.332,0,0,1-1.065-3.26V245.78Z" transform="translate(-351.051 -217.575)" fill="#fff"/>
        <path id="Path_655" data-name="Path 655" d="M463.564,245.279a7.009,7.009,0,0,1,1.4.126l-.247,1.652a6.168,6.168,0,0,0-1.284-.162,3.127,3.127,0,0,0-2.43,1.159,4.22,4.22,0,0,0-1.012,2.883v6.3H458.21V245.494h1.47l.2,2.175h.085a5.232,5.232,0,0,1,1.575-1.77,3.563,3.563,0,0,1,2.025-.62" transform="translate(-369.848 -217.276)" fill="#fff"/>
        <path id="Path_656" data-name="Path 656" d="M482.2,256.041a3.612,3.612,0,0,0,2.612-.911,3.373,3.373,0,0,0,.948-2.551v-1.061l-1.778.073a6.487,6.487,0,0,0-3.061.66,1.992,1.992,0,0,0-.939,1.818,1.838,1.838,0,0,0,.587,1.466,2.43,2.43,0,0,0,1.62.506m4.021,1.251-.356-1.672h-.085a4.969,4.969,0,0,1-1.749,1.5,5.386,5.386,0,0,1-2.183.4,3.92,3.92,0,0,1-2.737-.9,3.288,3.288,0,0,1-.992-2.563q0-3.556,5.69-3.73l2-.061v-.729a2.989,2.989,0,0,0-.6-2.025,2.351,2.351,0,0,0-1.875-.676,7.775,7.775,0,0,0-3.325.9l-.547-1.361a8.5,8.5,0,0,1,3.977-1.008,4.478,4.478,0,0,1,3.114.931,3.9,3.9,0,0,1,1.012,2.993v8.014Z" transform="translate(-381.686 -217.331)" fill="#fff"/>
      </g>
      <rect id="Rectangle_2180" data-name="Rectangle 2180" width="1.778" height="16.676" transform="translate(184.949 34.251)" fill="#fff"/>
      <g id="Group_3146" data-name="Group 3146" transform="translate(75.423 10.966)" clip-path="url(#clip-path)">
        <path id="Path_657" data-name="Path 657" d="M543.8,251.788h-1.8L538.844,241.3c-.15-.462-.32-1.049-.5-1.758a10.66,10.66,0,0,1-.292-1.276,24.99,24.99,0,0,1-.749,3.1l-3.078,10.428h-1.8L528.25,236.12h1.932l2.474,9.679a35.781,35.781,0,0,1,.753,3.685,26.546,26.546,0,0,1,.854-3.835l2.81-9.529H539l2.948,9.614a28.769,28.769,0,0,1,.867,3.75,32.253,32.253,0,0,1,.773-3.705l2.466-9.658h1.936Z" transform="translate(-411.525 -211.827)" fill="#fff"/>
        <path id="Path_658" data-name="Path 658" d="M581.278,256.041a3.608,3.608,0,0,0,2.608-.911,3.362,3.362,0,0,0,.952-2.551v-1.061l-1.782.073a6.477,6.477,0,0,0-3.057.66,1.984,1.984,0,0,0-.94,1.818,1.834,1.834,0,0,0,.583,1.466,2.43,2.43,0,0,0,1.62.506m4.017,1.251-.352-1.672h-.085a4.977,4.977,0,0,1-1.754,1.5,5.366,5.366,0,0,1-2.179.4,3.92,3.92,0,0,1-2.737-.9,3.272,3.272,0,0,1-.992-2.563q0-3.556,5.669-3.73l1.992-.061v-.729a2.989,2.989,0,0,0-.6-2.025,2.312,2.312,0,0,0-1.879-.676,7.763,7.763,0,0,0-3.325.9l-.547-1.361a8.5,8.5,0,0,1,3.977-1.008,4.478,4.478,0,0,1,3.114.931,3.9,3.9,0,0,1,1.012,2.993v8.014Z" transform="translate(-440.636 -217.331)" fill="#fff"/>
        <path id="Path_659" data-name="Path 659" d="M612.9,245.279a7.01,7.01,0,0,1,1.4.126l-.247,1.652a6.169,6.169,0,0,0-1.284-.162,3.127,3.127,0,0,0-2.43,1.159,4.22,4.22,0,0,0-1.012,2.883v6.3H607.55V245.494h1.47l.2,2.175h.085a5.232,5.232,0,0,1,1.575-1.77,3.564,3.564,0,0,1,2.025-.62" transform="translate(-458.712 -217.277)" fill="#fff"/>
        <path id="Path_660" data-name="Path 660" d="M635.03,245.279a7.022,7.022,0,0,1,1.405.126l-.247,1.652a6.2,6.2,0,0,0-1.288-.162,3.13,3.13,0,0,0-2.43,1.158,4.24,4.24,0,0,0-1.012,2.883v6.3H629.68V245.494h1.47l.2,2.175h.077A5.188,5.188,0,0,1,633,245.9a3.56,3.56,0,0,1,2.025-.62" transform="translate(-471.88 -217.276)" fill="#fff"/>
        <path id="Path_661" data-name="Path 661" d="M652.663,256.07a3.608,3.608,0,0,0,2.608-.911,3.373,3.373,0,0,0,.948-2.551v-1.061l-1.778.073a6.53,6.53,0,0,0-3.062.66,1.993,1.993,0,0,0-.935,1.818,1.835,1.835,0,0,0,.583,1.466,2.43,2.43,0,0,0,1.62.506m4.017,1.251-.352-1.672h-.089a4.932,4.932,0,0,1-1.749,1.5,5.386,5.386,0,0,1-2.183.4,3.92,3.92,0,0,1-2.738-.9,3.288,3.288,0,0,1-.992-2.563q0-3.556,5.694-3.73l1.992-.061v-.729a2.988,2.988,0,0,0-.6-2.025,2.456,2.456,0,0,0-1.9-.656,7.747,7.747,0,0,0-3.321.9l-.547-1.361a8.5,8.5,0,0,1,3.973-1.008,4.5,4.5,0,0,1,3.114.931,3.859,3.859,0,0,1,1.012,2.993v8.014Z" transform="translate(-483.111 -217.36)" fill="#fff"/>
        <path id="Path_662" data-name="Path 662" d="M686.988,257.255v-7.6a3.065,3.065,0,0,0-.656-2.146,2.644,2.644,0,0,0-2.025-.7,3.372,3.372,0,0,0-2.7,1,5.062,5.062,0,0,0-.859,3.292v6.159H678.97V245.512h1.446l.292,1.62h.085a3.645,3.645,0,0,1,1.531-1.349,5.005,5.005,0,0,1,2.2-.474,4.475,4.475,0,0,1,3.2,1.021,4.368,4.368,0,0,1,1.069,3.276v7.662Z" transform="translate(-501.209 -217.294)" fill="#fff"/>
        <path id="Path_663" data-name="Path 663" d="M712.689,252.3a6.026,6.026,0,0,0,.911-.069,6.692,6.692,0,0,0,.7-.146v1.361a3.273,3.273,0,0,1-.85.231,6.391,6.391,0,0,1-1.012.089q-3.414,0-3.41-3.588v-6.99H707.34v-.859l1.685-.737.749-2.511H710.8v2.725h3.41v1.381H710.8V250.1a2.369,2.369,0,0,0,.506,1.62,1.745,1.745,0,0,0,1.381.571" transform="translate(-518.091 -213.588)" fill="#fff"/>
        <path id="Path_664" data-name="Path 664" d="M728.73,245.81h1.907l2.571,6.7a25.126,25.126,0,0,1,1.049,3.313h.085q.142-.547.587-1.871t2.908-8.14h1.907L734.7,259.174a6.67,6.67,0,0,1-1.753,2.81,3.718,3.718,0,0,1-2.458.834,6.921,6.921,0,0,1-1.62-.186v-1.421a6.234,6.234,0,0,0,1.316.126,2.717,2.717,0,0,0,2.616-2.057l.652-1.672Z" transform="translate(-530.819 -217.592)" fill="#fff"/>
      </g>
    </g>
  </g>
</svg>
